<mxfile host="app.diagrams.net" modified="2022-04-13T12:01:43.775Z" agent="5.0 (Windows)" etag="Q27sx9c0EIdbf5gKX3YO" version="17.4.3" type="github">
  <diagram id="C5RBs43oDa-KdzZeNtuy" name="Page-1">
    <mxGraphModel dx="1422" dy="790" grid="1" gridSize="10" guides="1" tooltips="1" connect="1" arrows="1" fold="1" page="1" pageScale="1" pageWidth="827" pageHeight="1169" math="0" shadow="0">
      <root>
        <mxCell id="WIyWlLk6GJQsqaUBKTNV-0" />
        <mxCell id="WIyWlLk6GJQsqaUBKTNV-1" parent="WIyWlLk6GJQsqaUBKTNV-0" />
        <mxCell id="cnX1YJhNXzv6tfLP-UaZ-2" value="load func" style="edgeStyle=orthogonalEdgeStyle;rounded=0;orthogonalLoop=1;jettySize=auto;html=1;" edge="1" parent="WIyWlLk6GJQsqaUBKTNV-1" source="cnX1YJhNXzv6tfLP-UaZ-0" target="cnX1YJhNXzv6tfLP-UaZ-1">
          <mxGeometry relative="1" as="geometry" />
        </mxCell>
        <mxCell id="cnX1YJhNXzv6tfLP-UaZ-0" value="Input &lt;br&gt;&lt;div&gt;wav&lt;br&gt;&lt;/div&gt;" style="rounded=0;whiteSpace=wrap;html=1;" vertex="1" parent="WIyWlLk6GJQsqaUBKTNV-1">
          <mxGeometry x="60" y="50" width="120" height="60" as="geometry" />
        </mxCell>
        <mxCell id="cnX1YJhNXzv6tfLP-UaZ-4" value="" style="edgeStyle=orthogonalEdgeStyle;rounded=0;orthogonalLoop=1;jettySize=auto;html=1;" edge="1" parent="WIyWlLk6GJQsqaUBKTNV-1" source="cnX1YJhNXzv6tfLP-UaZ-1" target="cnX1YJhNXzv6tfLP-UaZ-3">
          <mxGeometry relative="1" as="geometry" />
        </mxCell>
        <mxCell id="cnX1YJhNXzv6tfLP-UaZ-6" value="" style="edgeStyle=orthogonalEdgeStyle;rounded=0;orthogonalLoop=1;jettySize=auto;html=1;" edge="1" parent="WIyWlLk6GJQsqaUBKTNV-1" source="cnX1YJhNXzv6tfLP-UaZ-1" target="cnX1YJhNXzv6tfLP-UaZ-5">
          <mxGeometry relative="1" as="geometry" />
        </mxCell>
        <mxCell id="cnX1YJhNXzv6tfLP-UaZ-1" value="Rohdaten" style="whiteSpace=wrap;html=1;rounded=0;" vertex="1" parent="WIyWlLk6GJQsqaUBKTNV-1">
          <mxGeometry x="260" y="50" width="120" height="60" as="geometry" />
        </mxCell>
        <mxCell id="cnX1YJhNXzv6tfLP-UaZ-3" value="&lt;div&gt;Diagramm&lt;/div&gt;&lt;div&gt;plot&lt;br&gt;&lt;/div&gt;" style="whiteSpace=wrap;html=1;rounded=0;" vertex="1" parent="WIyWlLk6GJQsqaUBKTNV-1">
          <mxGeometry x="460" y="50" width="120" height="60" as="geometry" />
        </mxCell>
        <mxCell id="cnX1YJhNXzv6tfLP-UaZ-8" value="" style="edgeStyle=orthogonalEdgeStyle;rounded=0;orthogonalLoop=1;jettySize=auto;html=1;" edge="1" parent="WIyWlLk6GJQsqaUBKTNV-1" source="cnX1YJhNXzv6tfLP-UaZ-5" target="cnX1YJhNXzv6tfLP-UaZ-7">
          <mxGeometry relative="1" as="geometry" />
        </mxCell>
        <mxCell id="cnX1YJhNXzv6tfLP-UaZ-5" value="&lt;div&gt;zero padding&lt;/div&gt;&lt;div&gt;leakageeffect&lt;/div&gt;" style="whiteSpace=wrap;html=1;rounded=0;" vertex="1" parent="WIyWlLk6GJQsqaUBKTNV-1">
          <mxGeometry x="260" y="190" width="120" height="60" as="geometry" />
        </mxCell>
        <mxCell id="cnX1YJhNXzv6tfLP-UaZ-10" value="" style="edgeStyle=orthogonalEdgeStyle;rounded=0;orthogonalLoop=1;jettySize=auto;html=1;" edge="1" parent="WIyWlLk6GJQsqaUBKTNV-1" source="cnX1YJhNXzv6tfLP-UaZ-7" target="cnX1YJhNXzv6tfLP-UaZ-9">
          <mxGeometry relative="1" as="geometry" />
        </mxCell>
        <mxCell id="cnX1YJhNXzv6tfLP-UaZ-7" value="standardlÃ¤nge definieren" style="whiteSpace=wrap;html=1;rounded=0;" vertex="1" parent="WIyWlLk6GJQsqaUBKTNV-1">
          <mxGeometry x="260" y="330" width="120" height="60" as="geometry" />
        </mxCell>
        <mxCell id="cnX1YJhNXzv6tfLP-UaZ-12" value="" style="edgeStyle=orthogonalEdgeStyle;rounded=0;orthogonalLoop=1;jettySize=auto;html=1;" edge="1" parent="WIyWlLk6GJQsqaUBKTNV-1" source="cnX1YJhNXzv6tfLP-UaZ-9" target="cnX1YJhNXzv6tfLP-UaZ-11">
          <mxGeometry relative="1" as="geometry" />
        </mxCell>
        <mxCell id="cnX1YJhNXzv6tfLP-UaZ-14" value="" style="edgeStyle=orthogonalEdgeStyle;rounded=0;orthogonalLoop=1;jettySize=auto;html=1;" edge="1" parent="WIyWlLk6GJQsqaUBKTNV-1" source="cnX1YJhNXzv6tfLP-UaZ-9" target="cnX1YJhNXzv6tfLP-UaZ-13">
          <mxGeometry relative="1" as="geometry" />
        </mxCell>
        <mxCell id="cnX1YJhNXzv6tfLP-UaZ-9" value="FFT" style="whiteSpace=wrap;html=1;rounded=0;" vertex="1" parent="WIyWlLk6GJQsqaUBKTNV-1">
          <mxGeometry x="260" y="470" width="120" height="60" as="geometry" />
        </mxCell>
        <mxCell id="cnX1YJhNXzv6tfLP-UaZ-11" value="&lt;div&gt;Filterung nach Bedarf&lt;/div&gt;&lt;div&gt;Dimensionsreduktion&lt;br&gt;&lt;/div&gt;" style="whiteSpace=wrap;html=1;rounded=0;" vertex="1" parent="WIyWlLk6GJQsqaUBKTNV-1">
          <mxGeometry x="260" y="610" width="120" height="60" as="geometry" />
        </mxCell>
        <mxCell id="cnX1YJhNXzv6tfLP-UaZ-13" value="plot" style="whiteSpace=wrap;html=1;rounded=0;" vertex="1" parent="WIyWlLk6GJQsqaUBKTNV-1">
          <mxGeometry x="460" y="470" width="120" height="60" as="geometry" />
        </mxCell>
      </root>
    </mxGraphModel>
  </diagram>
</mxfile>
